<svg width="158" height="138" viewBox="0 0 158 138" fill="none" xmlns="http://www.w3.org/2000/svg">
<path d="M7.50455 28.9986L7.03027 14.8576L21.1713 14.3833L21.6456 28.5243L7.50455 28.9986ZM8.29563 16.0408L8.68783 27.7332L20.3802 27.341L19.988 15.6486L8.29563 16.0408Z" fill="black"/>
<path d="M151.113 33.4943C151.113 35.3463 149.612 36.848 147.76 36.848C145.908 36.848 144.406 35.3464 144.406 33.4943C144.406 31.6422 145.908 30.1406 147.76 30.1406C149.612 30.1406 151.113 31.6422 151.113 33.4943Z" fill="#FF2828"/>
<path d="M40.4188 9.56116C40.4188 12.0185 38.4265 14.011 35.969 14.011C33.5116 14.011 31.5195 12.0185 31.5195 9.56116C31.5195 7.1038 33.5116 5.11133 35.969 5.11133C38.4265 5.11133 40.4188 7.1038 40.4188 9.56116Z" fill="#FF2828"/>
<path d="M111.902 9.32307L111.655 10.2681L121.049 12.7162L121.295 11.7712L111.902 9.32307Z" fill="black"/>
<path d="M117.218 6.20696L114.769 15.6006L115.713 15.847L118.163 6.45334L117.218 6.20696Z" fill="black"/>
<path d="M136.276 24.8053C131.985 24.4081 128.818 20.5943 129.215 16.3036C129.613 12.0129 133.426 8.84539 137.716 9.24262C142.007 9.63985 145.175 13.4537 144.777 17.7444C144.38 22.0351 140.566 25.2026 136.276 24.8053ZM137.61 10.3969C133.956 10.0586 130.708 12.7563 130.37 16.4105C130.031 20.0647 132.729 23.3128 136.383 23.651C140.037 23.9893 143.285 21.2917 143.623 17.6375C143.961 13.9833 141.264 10.7352 137.61 10.3969Z" fill="black"/>
<path d="M68.5178 6.94081L2.03061 113.332C-3.26997 121.813 2.52754 133.089 12.181 133.076C107.811 132.955 72.1792 133.081 145.15 133.103C154.798 133.106 160.585 121.835 155.288 113.358L88.7842 6.94081C83.9952 -0.722458 73.3069 -0.722458 68.5178 6.94081Z" fill="#FF2828"/>
<path d="M72.0391 106.379C72.0391 102.318 74.859 99.3853 78.6942 99.3853C82.755 99.3853 85.3494 102.318 85.3494 106.379C85.3494 110.327 82.7549 113.372 78.6942 113.372C74.7462 113.372 72.0391 110.327 72.0391 106.379ZM74.8163 88.7843L73.3251 37.6572C73.3003 36.8073 73.9825 36.105 74.8327 36.105H82.5556C83.4058 36.105 84.088 36.8073 84.0633 37.6572L82.572 88.7843C82.5483 89.5998 81.8803 90.2486 81.0644 90.2486H76.3239C75.508 90.2486 74.8401 89.5998 74.8163 88.7843Z" fill="white"/>
<path fill-rule="evenodd" clip-rule="evenodd" d="M74.8336 36.5961C74.2603 36.5961 73.8002 37.0698 73.8169 37.6428V37.6428L75.3082 88.77C75.3242 89.3199 75.7747 89.7574 76.3249 89.7574H81.0653C81.6155 89.7574 82.066 89.3199 82.082 88.77L82.573 88.7843L82.082 88.77L83.5732 37.6428C83.5899 37.0697 83.1299 36.5961 82.5566 36.5961H74.8336ZM72.835 37.6715C72.8022 36.5448 73.7066 35.6138 74.8336 35.6138H82.5566C83.6836 35.6138 84.5879 36.5449 84.5551 37.6714L84.5551 37.6715L83.0639 88.7986C83.0324 89.8797 82.1469 90.7397 81.0653 90.7397H76.3249C75.2433 90.7397 74.3578 89.8797 74.3263 88.7986L74.8172 88.7843L74.3263 88.7986L72.835 37.6715C72.835 37.6715 72.835 37.6715 72.835 37.6715ZM78.6951 99.8764C75.1525 99.8764 72.5312 102.568 72.5312 106.379C72.5312 110.088 75.0502 112.881 78.6951 112.881C80.5955 112.881 82.1259 112.172 83.1843 111.023C84.2465 109.87 84.8591 108.246 84.8591 106.379C84.8591 104.453 84.245 102.83 83.1862 101.694C82.1307 100.561 80.6012 99.8764 78.6951 99.8764ZM71.5488 106.379C71.5488 102.069 74.5674 98.8941 78.6951 98.8941C80.8498 98.8941 82.6479 99.6755 83.9048 101.024C85.1584 102.37 85.8415 104.244 85.8415 106.379C85.8415 108.46 85.1568 110.332 83.9067 111.689C82.6527 113.05 80.8554 113.864 78.6951 113.864C74.4442 113.864 71.5488 110.565 71.5488 106.379Z" fill="white"/>
<path fill-rule="evenodd" clip-rule="evenodd" d="M59.1468 6.87324C63.4512 -1.48293 74.5495 -2.40501 80.1739 5.12627L155.26 105.672C161.446 113.956 156.481 126.141 146.438 126.972C118.325 129.299 106.385 130.267 96.8104 131.043C81.6169 132.275 72.3793 133.024 13.9249 137.955C3.87848 138.802 -3.04027 127.6 1.69671 118.404L59.1468 6.87325L59.5834 7.09816L59.1468 6.87324ZM79.3868 5.71405C74.1969 -1.23555 63.992 -0.387714 60.0201 7.32308L2.56999 118.853C-1.85325 127.44 4.65042 137.751 13.8424 136.976C72.2982 132.045 81.5374 131.296 96.7325 130.064C106.308 129.288 118.248 128.32 146.357 125.993C155.546 125.232 160.249 113.995 154.473 106.26L79.3868 5.71405Z" fill="black"/>
<path fill-rule="evenodd" clip-rule="evenodd" d="M77.1208 36.4469C77.09 35.8743 76.5924 35.4404 76.021 35.4879L68.3246 36.1273C68.3246 36.1273 68.3246 36.1273 68.3246 36.1273C67.7532 36.1748 67.334 36.6849 67.3981 37.2547C67.3981 37.2547 67.3981 37.2547 67.3981 37.2547L73.1174 88.0828C73.1789 88.6295 73.664 89.0282 74.2122 88.9826L78.9365 88.5901C79.4848 88.5445 79.8975 88.0712 79.8679 87.5219L77.1208 36.4469ZM75.9397 34.5089C77.0629 34.4156 78.0412 35.2686 78.1018 36.3941L80.8488 87.4691C80.9069 88.5491 80.0957 89.4795 79.0178 89.569L74.2936 89.9615C74.2936 89.9615 74.2936 89.9615 74.2936 89.9615C73.2158 90.0511 72.2622 89.2673 72.1412 88.1926L66.4219 37.3645C66.2959 36.2445 67.12 35.2417 68.2432 35.1484L75.9397 34.5089C75.9397 34.5089 75.9397 34.5089 75.9397 34.5089ZM82.0383 100.31C80.8927 99.2689 79.3118 98.7129 77.4122 98.8707C73.8818 99.164 71.4922 102.063 71.8078 105.861C72.1149 109.558 74.8566 112.133 78.489 111.831C80.3829 111.674 81.8493 110.84 82.8089 109.608C83.772 108.371 84.248 106.701 84.0935 104.84C83.934 102.921 83.1876 101.355 82.0383 100.31ZM82.6991 99.5834C84.0597 100.82 84.8956 102.632 85.0724 104.759C85.2447 106.833 84.7175 108.755 83.584 110.211C82.4469 111.671 80.7232 112.631 78.5703 112.81C74.334 113.162 71.1754 110.114 70.8288 105.942C70.472 101.647 73.2173 98.2335 77.3309 97.8917C79.4782 97.7134 81.3347 98.3432 82.6991 99.5834Z" fill="black"/>
</svg>
