<svg width="40" height="40" viewBox="0 0 40 40" fill="none" xmlns="http://www.w3.org/2000/svg">
<rect width="40" height="40" rx="20" fill="#002BC5"/>
<rect width="24" height="24" transform="translate(8 8)" fill="white" fill-opacity="0.01" style="mix-blend-mode:multiply"/>
<path d="M18.5 21.5H14V23H18.5V21.5Z" fill="#ffffff"/>
<path d="M21.5 24.5H14V26H21.5V24.5Z" fill="#ffffff"/>
<path d="M27.5 11H12.5C12.1023 11.0005 11.7211 11.1587 11.4399 11.4399C11.1587 11.7211 11.0005 12.1023 11 12.5V27.5C11.0005 27.8977 11.1587 28.2789 11.4399 28.5601C11.7211 28.8413 12.1023 28.9995 12.5 29H27.5C27.8977 28.9995 28.2789 28.8413 28.5601 28.5601C28.8413 28.2789 28.9995 27.8977 29 27.5V12.5C28.9995 12.1023 28.8413 11.7211 28.5601 11.4399C28.2789 11.1587 27.8977 11.0005 27.5 11ZM21.5 12.5V15.5H18.5V12.5H21.5ZM12.5 27.5V12.5H17V17H23V12.5H27.5L27.5009 27.5H12.5Z" fill="#ffffff"/>
</svg>
