<svg width="40" height="40" viewBox="0 0 40 40" fill="none" xmlns="http://www.w3.org/2000/svg">
<rect width="40" height="40" rx="20" fill="#002BC5"/>
<rect width="24" height="24" transform="translate(8 8)" fill="white" fill-opacity="0.01" style="mix-blend-mode:multiply"/>
<path d="M18.5 24.0605L14.75 20.3097L15.8098 19.25L18.5 21.9395L24.1888 16.25L25.25 17.3112L18.5 24.0605Z" fill="#ffffff"/>
<path d="M20 9.5C17.9233 9.5 15.8932 10.1158 14.1665 11.2696C12.4398 12.4233 11.094 14.0632 10.2993 15.9818C9.50455 17.9004 9.29661 20.0116 9.70176 22.0484C10.1069 24.0852 11.1069 25.9562 12.5754 27.4246C14.0438 28.8931 15.9148 29.8931 17.9516 30.2982C19.9884 30.7034 22.0996 30.4955 24.0182 29.7007C25.9368 28.906 27.5767 27.5602 28.7304 25.8335C29.8842 24.1068 30.5 22.0767 30.5 20C30.5 17.2152 29.3938 14.5445 27.4246 12.5754C25.4555 10.6062 22.7848 9.5 20 9.5ZM20 29C18.22 29 16.4799 28.4722 14.9999 27.4832C13.5198 26.4943 12.3663 25.0887 11.6851 23.4442C11.0039 21.7996 10.8257 19.99 11.1729 18.2442C11.5202 16.4984 12.3774 14.8947 13.636 13.636C14.8947 12.3774 16.4984 11.5202 18.2442 11.1729C19.99 10.8257 21.7996 11.0039 23.4442 11.6851C25.0887 12.3663 26.4943 13.5198 27.4832 14.9999C28.4722 16.4799 29 18.22 29 20C29 22.3869 28.0518 24.6761 26.364 26.364C24.6761 28.0518 22.387 29 20 29Z" fill="#ffffff"/>
</svg>
